<svg width="1440" height="3678" viewBox="0 0 1440 3678" fill="none" xmlns="http://www.w3.org/2000/svg">
<g clip-path="url(#clip0_1_2)">
<rect width="1440" height="3678" fill="black"/>
<ellipse cx="1009" cy="3267.5" rx="121" ry="115.5" fill="url(#paint0_linear_1_2)" fill-opacity="0.5"/>
<ellipse cx="1044.5" cy="294.5" rx="150.5" ry="154.5" fill="url(#paint1_linear_1_2)"/>
<ellipse cx="1394.5" cy="294.5" rx="150.5" ry="154.5" fill="url(#paint2_linear_1_2)"/>
<ellipse cx="58.5" cy="207.5" rx="150.5" ry="154.5" fill="url(#paint3_linear_1_2)"/>
<ellipse cx="1093.5" cy="907.5" rx="150.5" ry="154.5" fill="url(#paint4_linear_1_2)" fill-opacity="0.3"/>
<ellipse cx="1392" cy="1296.5" rx="121" ry="115.5" fill="url(#paint5_linear_1_2)"/>
<ellipse cx="1363" cy="2163.5" rx="121" ry="115.5" fill="url(#paint6_linear_1_2)"/>
<ellipse cx="36" cy="3111.5" rx="121" ry="115.5" fill="url(#paint7_linear_1_2)"/>
<ellipse cx="622" cy="2739.5" rx="121" ry="115.5" fill="url(#paint8_linear_1_2)"/>
<ellipse cx="74" cy="2202.5" rx="121" ry="115.5" fill="url(#paint9_linear_1_2)"/>
<ellipse cx="88" cy="1438.5" rx="121" ry="115.5" fill="url(#paint10_linear_1_2)"/>
<ellipse cx="1319" cy="3596.5" rx="121" ry="115.5" fill="url(#paint11_linear_1_2)"/>
</g>
<defs>
<linearGradient id="paint0_linear_1_2" x1="834.133" y1="3095.56" x2="990.452" y2="3392.76" gradientUnits="userSpaceOnUse">
<stop stop-color="#EB00B7"/>
<stop offset="1" stop-color="#D9D9D9" stop-opacity="0"/>
</linearGradient>
<linearGradient id="paint1_linear_1_2" x1="827" y1="64.5" x2="1044.5" y2="449" gradientUnits="userSpaceOnUse">
<stop stop-color="#EB00B7"/>
<stop offset="1" stop-color="#D9D9D9" stop-opacity="0"/>
</linearGradient>
<linearGradient id="paint2_linear_1_2" x1="1177" y1="64.5" x2="1394.5" y2="449" gradientUnits="userSpaceOnUse">
<stop stop-color="#EB00B7"/>
<stop offset="1" stop-color="#D9D9D9" stop-opacity="0"/>
</linearGradient>
<linearGradient id="paint3_linear_1_2" x1="-159" y1="-22.5" x2="58.5" y2="362" gradientUnits="userSpaceOnUse">
<stop stop-color="#EB00B7"/>
<stop offset="1" stop-color="#D9D9D9" stop-opacity="0"/>
</linearGradient>
<linearGradient id="paint4_linear_1_2" x1="876" y1="677.5" x2="1093.5" y2="1062" gradientUnits="userSpaceOnUse">
<stop stop-color="#EB00B7"/>
<stop offset="1" stop-color="#D9D9D9" stop-opacity="0"/>
</linearGradient>
<linearGradient id="paint5_linear_1_2" x1="1217.13" y1="1124.56" x2="1373.45" y2="1421.76" gradientUnits="userSpaceOnUse">
<stop stop-color="#EB00B7"/>
<stop offset="1" stop-color="#D9D9D9" stop-opacity="0"/>
</linearGradient>
<linearGradient id="paint6_linear_1_2" x1="1188.13" y1="1991.56" x2="1344.45" y2="2288.76" gradientUnits="userSpaceOnUse">
<stop stop-color="#EB00B7"/>
<stop offset="1" stop-color="#D9D9D9" stop-opacity="0"/>
</linearGradient>
<linearGradient id="paint7_linear_1_2" x1="-138.867" y1="2939.56" x2="17.4522" y2="3236.76" gradientUnits="userSpaceOnUse">
<stop stop-color="#EB00B7"/>
<stop offset="1" stop-color="#D9D9D9" stop-opacity="0"/>
</linearGradient>
<linearGradient id="paint8_linear_1_2" x1="447.133" y1="2567.56" x2="603.452" y2="2864.76" gradientUnits="userSpaceOnUse">
<stop stop-color="#EB00B7"/>
<stop offset="1" stop-color="#D9D9D9" stop-opacity="0"/>
</linearGradient>
<linearGradient id="paint9_linear_1_2" x1="-100.867" y1="2030.56" x2="55.4522" y2="2327.76" gradientUnits="userSpaceOnUse">
<stop stop-color="#EB00B7"/>
<stop offset="1" stop-color="#D9D9D9" stop-opacity="0"/>
</linearGradient>
<linearGradient id="paint10_linear_1_2" x1="-86.8671" y1="1266.56" x2="69.4522" y2="1563.76" gradientUnits="userSpaceOnUse">
<stop stop-color="#EB00B7"/>
<stop offset="1" stop-color="#D9D9D9" stop-opacity="0"/>
</linearGradient>
<linearGradient id="paint11_linear_1_2" x1="1144.13" y1="3424.56" x2="1300.45" y2="3721.76" gradientUnits="userSpaceOnUse">
<stop stop-color="#EB00B7"/>
<stop offset="1" stop-color="#D9D9D9" stop-opacity="0"/>
</linearGradient>
<clipPath id="clip0_1_2">
<rect width="1440" height="3678" fill="white"/>
</clipPath>
</defs>
</svg>
